<?xml version="1.0" standalone="no"?><!DOCTYPE svg PUBLIC "-//W3C//DTD SVG 1.1//EN" "http://www.w3.org/Graphics/SVG/1.1/DTD/svg11.dtd"><svg t="1616941766907" class="icon" viewBox="0 0 1024 1024" version="1.1" xmlns="http://www.w3.org/2000/svg" p-id="5427" xmlns:xlink="http://www.w3.org/1999/xlink" width="200" height="200"><defs><style type="text/css"></style></defs><path d="M383.62 316.444V0.014h-170.652v316.43C137.626 349.35 84.972 424.504 84.972 512v511.986h426.644V512c0-87.496-52.656-162.65-127.996-195.556z" fill="#ED5564" p-id="5428"></path><path d="M426.306 895.99H170.312V554.656s26.282-85.342 127.998-85.342c101.684 0 127.996 85.342 127.996 85.342v341.334z" fill="#FFCE54" p-id="5429"></path><path d="M212.968 0.014h170.652v213.308h-170.652z" fill="#434A54" p-id="5430"></path><path d="M863.324 426.66h-191.398c-81.188 106.652-75.624 255.992-75.624 255.992s8 127.654 171.308 127.998c163.34-0.344 171.34-127.998 171.34-127.998s5.53-149.34-75.626-255.992z" fill="#E6E9ED" p-id="5431"></path><path d="M746.296 787.994h42.656v214.65h-42.656z" fill="#CCD1D9" p-id="5432"></path><path d="M874.262 981.3H660.958c-11.782 0-21.344 9.562-21.344 21.344s9.562 21.342 21.344 21.342h213.304c11.782 0 21.344-9.56 21.344-21.342s-9.564-21.344-21.344-21.344z" fill="#E6E9ED" p-id="5433"></path><path d="M596.3 682.652s8 127.654 171.308 127.998c163.34-0.344 171.34-127.998 171.34-127.998s0.594-16.592-1.594-42.654H597.864c-2.188 26.062-1.564 42.654-1.564 42.654z" fill="#ED5564" p-id="5434"></path><path d="M383.62 316.444V0.014h-42.656v316.43c75.342 32.906 127.996 108.06 127.996 195.556v511.986h42.656V512c0-87.496-52.656-162.65-127.996-195.556zM863.324 426.66H820.64c81.184 106.652 75.622 255.992 75.622 255.992s-7.282 116.28-149.996 127.186c6.812 0.5 13.906 0.782 21.344 0.812 163.34-0.344 171.34-127.998 171.34-127.998s5.53-149.34-75.626-255.992z" fill="#FFFFFF" opacity=".2" p-id="5435"></path></svg>