<?xml version="1.0" standalone="no"?><!DOCTYPE svg PUBLIC "-//W3C//DTD SVG 1.1//EN" "http://www.w3.org/Graphics/SVG/1.1/DTD/svg11.dtd"><svg t="1616766346259" class="icon" viewBox="0 0 1024 1024" version="1.1" xmlns="http://www.w3.org/2000/svg" p-id="2041" data-spm-anchor-id="a313x.7781069.0.i4" width="200" height="200" xmlns:xlink="http://www.w3.org/1999/xlink"><defs><style type="text/css"></style></defs><path d="M618.112 372.885333l0.554667-0.213333c-46.336-27.669333-42.666667-62.229333-42.666667-74.005333h-106.666667v1.344c0 11.776 3.328 44.992-43.008 72.661333l0.512 0.213333C388.821333 400.213333 362.666667 442.752 362.666667 490.666667l21.333333 448a21.333333 21.333333 0 0 0 21.333333 21.333333h234.666667a21.333333 21.333333 0 0 0 21.333333-21.333333l21.333334-448c0-47.914667-26.368-90.432-64.554667-117.781334z" fill="#d81e06" p-id="2042" data-spm-anchor-id="a313x.7781069.0.i0" class="selected"></path><path d="M576 149.354667a21.333333 21.333333 0 0 0 21.333333-21.333334V85.333333a21.333333 21.333333 0 0 0-21.333333-21.333333h-106.666667a21.333333 21.333333 0 0 0-21.333333 21.333333v42.688a21.333333 21.333333 0 0 0 21.333333 21.333334V298.666667h106.666667V149.354667z" fill="#a54615" p-id="2043" data-spm-anchor-id="a313x.7781069.0.i1" class=""></path><path d="M469.333333 277.333333h106.666667v21.333334h-106.666667z" fill="#FFC107" p-id="2044"></path><path d="M596.245333 512c-5.205333-36.117333-36.010667-64-73.578666-64s-68.373333 27.882667-73.6 64h-42.730667l14.549333 320h203.541334l14.570666-320h-42.752z" fill="#FFECB3" p-id="2045"></path><path d="M448 554.666667h149.333333v42.666666h-149.333333z" fill="#AFB42B" p-id="2046" data-spm-anchor-id="a313x.7781069.0.i14" class="selected"></path><path d="M639.36 960c-6.506667-59.797333-66.304-106.666667-116.693333-106.666667s-110.186667 46.869333-116.693334 106.666667h233.386667z" fill="#33691E" p-id="2047"></path></svg>