<?xml version="1.0" standalone="no"?><!DOCTYPE svg PUBLIC "-//W3C//DTD SVG 1.1//EN" "http://www.w3.org/Graphics/SVG/1.1/DTD/svg11.dtd"><svg t="1616765930773" class="icon" viewBox="0 0 1024 1024" version="1.1" xmlns="http://www.w3.org/2000/svg" p-id="5276" xmlns:xlink="http://www.w3.org/1999/xlink" width="200" height="200"><defs><style type="text/css"></style></defs><path d="M495.030857 669.842286c0-0.526629 0.263314-0.965486 0.292572-1.462857C331.395657 653.663086 202.459429 515.6864 202.459429 348.013714c0-16.208457 0.877714-36.074057 2.750171-58.514285h638.1568c1.872457 22.440229 2.750171 42.305829 2.750171 58.514285 0 167.672686-128.965486 305.649371-292.864 320.365715 0.029257 0.497371 0.292571 0.936229 0.292572 1.462857h-58.514286" fill="#ED7161" p-id="5277"></path><path d="M205.2096 289.499429A1234.358857 1234.358857 0 0 1 251.231086 47.104a29.227886 29.227886 0 0 1 28.0576-20.918857h489.998628c12.931657 0 24.341943 8.484571 28.028343 20.918857a1234.651429 1234.651429 0 0 1 46.050743 242.395429H205.2096z m172.792686 672.914285h117.028571v-292.571428h58.514286v292.571428h117.028571a29.257143 29.257143 0 0 1 0 58.514286h-292.571428a29.257143 29.257143 0 0 1 0-58.514286z" fill="#E6E6E6" p-id="5278"></path><path d="M263.9872 289.499429c5.178514-57.929143 17.2032-131.598629 37.361371-204.8h445.878858c20.158171 73.201371 32.182857 146.870857 37.361371 204.8H263.9872" fill="#F3F3F3" p-id="5279"></path></svg>